<svg xmlns="http://www.w3.org/2000/svg" xmlns:xlink="http://www.w3.org/1999/xlink" width="500" zoomAndPan="magnify" viewBox="0 0 375 374.999991" height="500" preserveAspectRatio="xMidYMid meet" version="1.0"><path fill="#f590b1" d="M 266.542969 244.328125 C 310.03125 200.945312 310.03125 129.957031 266.542969 86.476562 C 223.152344 43.09375 152.148438 43.09375 108.660156 86.476562 C 65.269531 129.957031 65.269531 200.945312 108.660156 244.328125 C 152.148438 287.808594 223.152344 287.808594 266.542969 244.328125 Z M 286.363281 264.144531 C 340.699219 209.917969 340.699219 120.984375 286.363281 66.660156 C 232.125 12.332031 143.175781 12.332031 88.839844 66.660156 C 34.503906 120.984375 34.503906 209.917969 88.839844 264.144531 L 187.652344 362.9375 Z M 286.363281 264.144531 " fill-opacity="1" fill-rule="evenodd"/><path fill="#f4acb4" d="M 259.34375 137.648438 L 242.382812 98.40625 L 132.917969 98.40625 L 115.957031 137.648438 C 115.957031 145.632812 121.28125 152.339844 128.480469 154.707031 L 128.480469 214.453125 L 118.523438 214.453125 L 118.523438 225.300781 L 256.78125 225.300781 L 256.78125 214.453125 L 246.820312 214.453125 L 246.820312 154.707031 C 254.019531 152.339844 259.34375 145.632812 259.34375 137.648438 Z M 203.625 171.566406 L 196.03125 179.058594 L 194.160156 177.183594 L 201.652344 169.59375 Z M 212.5 172.75 L 197.214844 188.03125 L 195.34375 186.058594 L 210.628906 170.777344 Z M 213.683594 181.621094 L 206.191406 189.214844 L 204.21875 187.339844 L 211.8125 179.75 Z M 159.152344 178.269531 C 161.519531 178.269531 163.390625 180.144531 163.390625 182.507812 C 163.390625 184.777344 161.519531 186.648438 159.152344 186.648438 C 156.785156 186.648438 154.910156 184.777344 154.910156 182.507812 C 154.910156 180.144531 156.785156 178.269531 159.152344 178.269531 Z M 173.054688 155.199219 L 173.054688 214.453125 L 235.972656 214.453125 L 235.972656 154.707031 C 228.773438 152.339844 223.449219 145.632812 223.449219 137.648438 C 223.449219 147.507812 215.363281 155.492188 205.597656 155.492188 C 195.738281 155.492188 187.652344 147.507812 187.652344 137.648438 C 187.652344 146.324219 181.339844 153.621094 173.054688 155.199219 Z M 167.730469 214.453125 L 167.730469 155.394531 C 158.757812 154.410156 151.753906 146.816406 151.753906 137.648438 C 151.753906 145.632812 146.527344 152.339844 139.328125 154.707031 L 139.328125 214.453125 Z M 167.730469 214.453125 " fill-opacity="1" fill-rule="evenodd"/></svg>