<svg xmlns="http://www.w3.org/2000/svg" xmlns:xlink="http://www.w3.org/1999/xlink" width="500" zoomAndPan="magnify" viewBox="0 0 375 374.999991" height="500" preserveAspectRatio="xMidYMid meet" version="1.0"><defs><clipPath id="a364a316f8"><path d="M 62.394531 19.855469 L 312.894531 19.855469 L 312.894531 353 L 62.394531 353 Z M 62.394531 19.855469 " clip-rule="nonzero"/></clipPath></defs><g clip-path="url(#a364a316f8)"><path fill="#ff3131" d="M 312.597656 144.980469 C 312.597656 201.933594 236.359375 303.324219 202.929688 345.160156 C 194.914062 355.128906 180.058594 355.128906 172.042969 345.160156 C 138.613281 303.324219 62.375 201.933594 62.375 144.980469 C 62.375 75.910156 118.414062 19.867188 187.488281 19.867188 C 256.558594 19.867188 312.597656 75.910156 312.597656 144.980469 Z M 312.597656 144.980469 " fill-opacity="1" fill-rule="nonzero"/></g><path fill="#ffffff" d="M 187.488281 60.4375 C 233.214844 60.4375 270.328125 97.546875 270.328125 143.277344 C 270.328125 189.007812 233.214844 226.117188 187.488281 226.117188 C 141.757812 226.117188 104.644531 189.007812 104.644531 143.277344 C 104.644531 97.546875 141.757812 60.4375 187.488281 60.4375 Z M 187.488281 60.4375 " fill-opacity="1" fill-rule="nonzero"/><path fill="#ff3131" d="M 242.671875 110.921875 L 230.488281 91.640625 C 229.40625 89.917969 227.46875 88.855469 225.410156 88.855469 L 149.554688 88.855469 C 147.496094 88.855469 145.558594 89.917969 144.476562 91.640625 L 132.273438 110.921875 C 125.980469 120.871094 131.550781 134.710938 143.304688 136.304688 C 144.15625 136.410156 145.027344 136.472656 145.878906 136.472656 C 151.425781 136.472656 156.359375 134.050781 159.738281 130.308594 C 163.121094 134.050781 168.050781 136.472656 173.601562 136.472656 C 179.148438 136.472656 184.082031 134.050781 187.460938 130.308594 C 190.839844 134.050781 195.773438 136.472656 201.320312 136.472656 C 206.890625 136.472656 211.800781 134.050781 215.183594 130.308594 C 218.582031 134.050781 223.492188 136.472656 229.042969 136.472656 C 229.914062 136.472656 230.765625 136.410156 231.617188 136.304688 C 243.414062 134.734375 249.007812 120.894531 242.691406 110.921875 Z M 232.488281 143.042969 L 232.464844 143.042969 C 231.339844 143.191406 230.191406 143.277344 229.023438 143.277344 C 226.386719 143.277344 223.855469 142.875 221.496094 142.152344 L 221.496094 170.488281 L 153.46875 170.488281 L 153.46875 142.128906 C 151.085938 142.875 148.535156 143.277344 145.898438 143.277344 C 144.730469 143.277344 143.5625 143.191406 142.433594 143.042969 L 142.414062 143.042969 C 141.542969 142.917969 140.691406 142.769531 139.863281 142.554688 L 139.863281 184.09375 C 139.863281 191.597656 145.964844 197.703125 153.46875 197.703125 L 221.496094 197.703125 C 229 197.703125 235.101562 191.597656 235.101562 184.09375 L 235.101562 142.554688 C 234.25 142.769531 233.402344 142.9375 232.488281 143.042969 Z M 232.488281 143.042969 " fill-opacity="1" fill-rule="nonzero"/></svg>